# xmcd CD database file
#
# Track frame offsets:
#	150
#	18830
#	35995
#	54663
#
# Disc length: 954 seconds
#
# Revision: 1
# Processed by: cddbd v1.5.1PL0 Copyright (c) Steve Scherf et al.
# Submitted via: CDex 1.51
#
DISCID=2f03b804
DTITLE=UYAMUYA - コワしてGOOD JOB
DYEAR=2004
DGENRE=Japanese Pop
TTITLE0=コワしてGOOD JOB
TTITLE1=UYA-MUYA HEAVEN
TTITLE2=コワしてGOOD JOB (Off Vocal)
TTITLE3=UYA-MUYA HEAVEN (Off Vocal)
EXTD=YEAR: 2004
EXTT0=
EXTT1=
EXTT2=
EXTT3=
PLAYORDER=
